<svg xmlns="http://www.w3.org/2000/svg" viewBox="0 0 32 32" role="img" aria-label="OpenShaper" fill="none">
  <rect width="32" height="32" rx="8" fill="#0A1424"/>
  <rect x="0.6" y="0.6" width="30.8" height="30.8" rx="7.4" fill="none" stroke="#22D3EE" stroke-opacity="0.3"/>
  <g transform="rotate(-26 16 16)">
    <g transform="translate(16 4.3) scale(4.5 23.4)">
      <path fill="#22D3EE" d="M0 0 L0.0236 0 L0.0665 0.0001 L0.1041 0.0003 L0.1211 0.0005 L0.2943 0.0145 L0.4056 0.0357 L0.5284 0.0671 L0.6535 0.1101 L0.7718 0.1659 L0.8741 0.2357 L0.9513 0.3207 L0.9943 0.4222 L1 0.4795 L0.9862 0.5565 L0.9441 0.6314 L0.8724 0.7036 L0.7696 0.7724 L0.6344 0.8372 L0.4656 0.8972 L0.2616 0.9517 L0.0213 1 L-0.0213 1 L-0.2616 0.9517 L-0.4656 0.8972 L-0.6344 0.8372 L-0.7696 0.7724 L-0.8724 0.7036 L-0.9441 0.6314 L-0.9862 0.5565 L-1 0.4795 L-0.9943 0.4222 L-0.9513 0.3207 L-0.8741 0.2357 L-0.7718 0.1659 L-0.6535 0.1101 L-0.5284 0.0671 L-0.4056 0.0357 L-0.2943 0.0145 L-0.1211 0.0005 L-0.1041 0.0003 L-0.0665 0.0001 L-0.0236 0 Z"/>
    </g>
    <line x1="16" y1="5.6" x2="16" y2="27.1" stroke="#0A1424" stroke-width="0.9"/>
  </g>
</svg>
